<svg width="28" height="28" viewBox="0 0 28 28" fill="none" xmlns="http://www.w3.org/2000/svg">
<path d="M14.0002 25.6666L13.6291 26.0017L14.0002 26.4125L14.3712 26.0017L14.0002 25.6666ZM14.0002 25.6666C14.3712 26.0017 14.3713 26.0016 14.3714 26.0015L14.3718 26.0011L14.3731 25.9996L14.378 25.9942L14.3964 25.9736C14.4125 25.9556 14.4361 25.9291 14.4666 25.8946C14.5277 25.8254 14.6168 25.7237 14.7299 25.5925C14.956 25.33 15.2782 24.9491 15.6644 24.4732C16.4365 23.5219 17.4667 22.1882 18.498 20.6598C19.5283 19.1328 20.5657 17.4023 21.3471 15.6581C22.1255 13.9205 22.6668 12.1323 22.6668 10.4999C22.6668 5.70878 18.7913 1.83325 14.0002 1.83325C9.20902 1.83325 5.3335 5.70878 5.3335 10.4999C5.3335 12.1323 5.87478 13.9205 6.65324 15.6581C7.43463 17.4023 8.47207 19.1328 9.50235 20.6598C10.5336 22.1882 11.5638 23.5219 12.3359 24.4732C12.7221 24.9491 13.0443 25.33 13.2704 25.5925C13.3835 25.7237 13.4726 25.8254 13.5337 25.8946C13.5643 25.9291 13.5878 25.9556 13.6039 25.9736L13.6223 25.9942L13.6272 25.9996L13.6285 26.0011L13.6289 26.0015C13.629 26.0016 13.6291 26.0017 14.0002 25.6666ZM14.0002 12.9166C12.6663 12.9166 11.5835 11.8338 11.5835 10.4999C11.5835 9.16606 12.6663 8.08325 14.0002 8.08325C15.334 8.08325 16.4168 9.16606 16.4168 10.4999C16.4168 11.8338 15.334 12.9166 14.0002 12.9166Z" fill="#23FFC0" stroke="#090909"/>
</svg>
