<svg width="128" height="154" viewBox="0 0 128 154" fill="none" xmlns="http://www.w3.org/2000/svg">
<path d="M64 10.6667C43.36 10.6667 26.6666 27.36 26.6666 48C26.6666 76 64 117.333 64 117.333C64 117.333 101.333 76 101.333 48C101.333 27.36 84.64 10.6667 64 10.6667ZM64 61.3333C56.64 61.3333 50.6666 55.36 50.6666 48C50.6666 40.64 56.64 34.6667 64 34.6667C71.36 34.6667 77.3333 40.64 77.3333 48C77.3333 55.36 71.36 61.3333 64 61.3333Z" fill="#23FFC0"/>
<path d="M24.4984 132.031L29.5375 144.359H29.7484L34.7875 132.031H38.5375V149H35.6078V137.328H35.4437L30.7328 148.953H28.5531L23.8422 137.281H23.7016V149H20.7484V132.031H24.4984ZM45.8922 149.258C44.6734 149.258 43.6031 148.984 42.6812 148.438C41.7594 147.891 41.0484 147.125 40.5484 146.141C40.0484 145.148 39.7984 144 39.7984 142.695C39.7984 141.383 40.0484 140.23 40.5484 139.238C41.0484 138.246 41.7594 137.477 42.6812 136.93C43.6031 136.383 44.6734 136.109 45.8922 136.109C47.1187 136.109 48.193 136.383 49.1148 136.93C50.0367 137.477 50.7437 138.246 51.2359 139.238C51.7359 140.23 51.9859 141.383 51.9859 142.695C51.9859 144 51.7359 145.148 51.2359 146.141C50.7359 147.133 50.025 147.902 49.1031 148.449C48.1891 148.988 47.1187 149.258 45.8922 149.258ZM45.9156 146.867C46.5719 146.867 47.1266 146.684 47.5797 146.316C48.0406 145.949 48.3844 145.449 48.6109 144.816C48.8453 144.184 48.9625 143.469 48.9625 142.672C48.9625 141.883 48.8453 141.172 48.6109 140.539C48.3844 139.898 48.0406 139.395 47.5797 139.027C47.1266 138.66 46.5719 138.477 45.9156 138.477C45.2437 138.477 44.6734 138.66 44.2047 139.027C43.7437 139.395 43.3961 139.895 43.1617 140.527C42.9352 141.16 42.8219 141.875 42.8219 142.672C42.8219 143.469 42.9352 144.184 43.1617 144.816C43.3961 145.449 43.7437 145.949 44.2047 146.316C44.6734 146.684 45.2437 146.867 45.9156 146.867ZM54.4656 153.781C53.8094 153.781 53.2937 153.758 52.9187 153.711V151.32C53.4187 151.352 53.8406 151.367 54.1844 151.367C54.4812 151.367 54.7273 151.34 54.9227 151.285C55.1258 151.23 55.3211 151.098 55.5086 150.887C55.6961 150.684 55.8719 150.367 56.0359 149.938L56.2937 149.258L51.6531 136.273H54.8172L57.7703 145.883H57.9109L60.8641 136.273H64.0281L58.9187 150.547C58.5437 151.609 57.9969 152.414 57.2781 152.961C56.5594 153.508 55.6219 153.781 54.4656 153.781ZM69.9062 149.258C68.6406 149.258 67.5391 148.992 66.6016 148.461C65.6719 147.922 64.957 147.16 64.457 146.176C63.9648 145.191 63.7188 144.039 63.7188 142.719C63.7188 141.414 63.9688 140.266 64.4688 139.273C64.9688 138.273 65.6719 137.496 66.5781 136.941C67.4922 136.387 68.5469 136.109 69.7422 136.109C70.8203 136.109 71.7969 136.34 72.6719 136.801C73.5547 137.262 74.2539 137.977 74.7695 138.945C75.293 139.906 75.5547 141.102 75.5547 142.531V143.469H66.6719C66.6797 144.18 66.8203 144.797 67.0938 145.32C67.3672 145.836 67.7461 146.23 68.2305 146.504C68.7148 146.777 69.2812 146.914 69.9297 146.914C70.5625 146.914 71.1016 146.793 71.5469 146.551C71.9922 146.309 72.3125 145.992 72.5078 145.602H75.4375C75.2578 146.336 74.918 146.98 74.418 147.535C73.918 148.082 73.2812 148.508 72.5078 148.812C71.7422 149.109 70.875 149.258 69.9062 149.258ZM72.6953 141.43C72.6875 140.852 72.5625 140.336 72.3203 139.883C72.0781 139.43 71.7383 139.074 71.3008 138.816C70.8633 138.559 70.3594 138.43 69.7891 138.43C69.2031 138.43 68.6797 138.566 68.2188 138.84C67.7656 139.105 67.4062 139.469 67.1406 139.93C66.875 140.383 66.7227 140.883 66.6836 141.43H72.6953ZM82.2297 149.258C81.0109 149.258 79.9406 148.984 79.0187 148.438C78.0969 147.891 77.3859 147.125 76.8859 146.141C76.3859 145.148 76.1359 144 76.1359 142.695C76.1359 141.383 76.3859 140.23 76.8859 139.238C77.3859 138.246 78.0969 137.477 79.0187 136.93C79.9406 136.383 81.0109 136.109 82.2297 136.109C83.4562 136.109 84.5305 136.383 85.4523 136.93C86.3742 137.477 87.0812 138.246 87.5734 139.238C88.0734 140.23 88.3234 141.383 88.3234 142.695C88.3234 144 88.0734 145.148 87.5734 146.141C87.0734 147.133 86.3625 147.902 85.4406 148.449C84.5266 148.988 83.4562 149.258 82.2297 149.258ZM82.2531 146.867C82.9094 146.867 83.4641 146.684 83.9172 146.316C84.3781 145.949 84.7219 145.449 84.9484 144.816C85.1828 144.184 85.3 143.469 85.3 142.672C85.3 141.883 85.1828 141.172 84.9484 140.539C84.7219 139.898 84.3781 139.395 83.9172 139.027C83.4641 138.66 82.9094 138.477 82.2531 138.477C81.5812 138.477 81.0109 138.66 80.5422 139.027C80.0812 139.395 79.7336 139.895 79.4992 140.527C79.2727 141.16 79.1594 141.875 79.1594 142.672C79.1594 143.469 79.2727 144.184 79.4992 144.816C79.7336 145.449 80.0812 145.949 80.5422 146.316C81.0109 146.684 81.5812 146.867 82.2531 146.867ZM89.4437 136.273H92.35V138.383H92.4906C92.7094 137.664 93.1039 137.102 93.6742 136.695C94.2445 136.289 94.8969 136.086 95.6312 136.086C96.0687 136.086 96.4281 136.109 96.7094 136.156V138.922C96.5766 138.875 96.3734 138.832 96.1 138.793C95.8266 138.754 95.5687 138.734 95.3266 138.734C94.7797 138.734 94.2875 138.852 93.85 139.086C93.4125 139.32 93.0687 139.648 92.8187 140.07C92.5687 140.492 92.4437 140.969 92.4437 141.5V149H89.4437V136.273ZM96.4703 145.414C96.4703 144.102 96.9117 143.156 97.7945 142.578C98.6852 141.992 99.8219 141.656 101.205 141.57C102.556 141.477 103.642 141.414 104.463 141.383V140.375C104.463 139.742 104.263 139.254 103.865 138.91C103.466 138.559 102.9 138.383 102.166 138.383C101.517 138.383 100.986 138.52 100.572 138.793C100.158 139.066 99.8922 139.438 99.775 139.906H96.8922C96.9625 139.18 97.2203 138.531 97.6656 137.961C98.1109 137.383 98.7242 136.93 99.5055 136.602C100.287 136.273 101.197 136.109 102.236 136.109C103.127 136.109 103.963 136.25 104.744 136.531C105.533 136.805 106.177 137.27 106.677 137.926C107.185 138.574 107.439 139.43 107.439 140.492V149H104.58V147.242H104.486C104.173 147.836 103.705 148.32 103.08 148.695C102.455 149.07 101.673 149.258 100.736 149.258C99.9156 149.258 99.1813 149.109 98.5328 148.812C97.8922 148.516 97.3883 148.078 97.0211 147.5C96.6539 146.922 96.4703 146.227 96.4703 145.414ZM99.3531 145.391C99.3531 145.93 99.5484 146.344 99.9391 146.633C100.33 146.914 100.853 147.055 101.509 147.055C102.095 147.055 102.615 146.938 103.068 146.703C103.521 146.469 103.869 146.152 104.111 145.754C104.361 145.348 104.486 144.906 104.486 144.43L104.474 143.387L101.673 143.562C100.939 143.625 100.369 143.809 99.9625 144.113C99.5563 144.418 99.3531 144.844 99.3531 145.391Z" fill="#23FFC0"/>
</svg>
